<?xml version="1.0"?>
<svg xmlns="http://www.w3.org/2000/svg" height="512px" viewBox="0 0 512 512" width="512px" class=""><g><path d="m305.378906 0c-113.9375 0-206.628906 92.625-206.628906 206.46875 0 41.582031 12.371094 80.34375 33.621094 112.785156l-119.851563 119.761719c-8.070312 8.0625-12.519531 18.792969-12.519531 30.203125 0 11.398438 4.449219 22.128906 12.550781 30.21875l.070313.082031c8.328125 8.320313 19.269531 12.480469 30.207031 12.480469 10.941406 0 21.890625-4.160156 30.210937-12.480469l119.960938-119.863281c32.359375 21.039062 70.96875 33.28125 112.378906 33.28125 113.929688 0 206.621094-92.625 206.621094-206.46875s-92.691406-206.46875-206.621094-206.46875zm-246.46875 485.367188c-8.871094 8.851562-23.289062 8.851562-32.179687-.027344l-.082031-.070313c-4.289063-4.289062-6.648438-9.992187-6.648438-16.050781 0-6.070312 2.359375-11.769531 6.648438-16.050781l117.632812-117.535157c2.6875 3.328126 5.46875 6.570313 8.339844 9.730469l-56.8125 56.761719c-3.898438 3.910156-3.910156 10.238281 0 14.140625 1.953125 1.960937 4.511718 2.9375 7.070312 2.9375 2.5625 0 5.121094-.976563 7.070313-2.929687l56.839843-56.800782c3.171876 2.878906 6.429688 5.648438 9.78125 8.320313zm246.46875-92.433594c-35.878906 0-69.417968-10.160156-97.890625-27.757813-5.777343-3.570312-11.339843-7.453125-16.679687-11.601562-5.546875-4.332031-10.859375-8.96875-15.886719-13.890625 0-.011719 0-.011719-.011719-.011719-.832031-.808594-1.648437-1.628906-2.480468-2.46875l-.007813-.011719c-4.933594-5-9.5625-10.257812-13.902344-15.789062-4.179687-5.308594-8.070312-10.859375-11.660156-16.621094-17.808594-28.5625-28.109375-62.261719-28.109375-98.3125 0-102.824219 83.71875-186.46875 186.628906-186.46875 102.902344 0 186.621094 83.644531 186.621094 186.46875 0 102.8125-83.71875 186.464844-186.621094 186.464844zm0 0" data-original="#000000" class="active-path" data-old_color="#000000" fill="#FFFFFF"/><path d="m305.375 362.800781c-86.273438 0-156.464844-70.136719-156.464844-156.34375s70.191406-156.339843 156.464844-156.339843c86.277344 0 156.464844 70.132812 156.464844 156.339843s-70.1875 156.34375-156.464844 156.34375zm0-292.683593c-75.246094 0-136.464844 61.164062-136.464844 136.339843 0 75.179688 61.21875 136.34375 136.464844 136.34375s136.464844-61.164062 136.464844-136.34375c0-75.179687-61.21875-136.339843-136.464844-136.339843zm0 0" data-original="#000000" class="active-path" data-old_color="#000000" fill="#FFFFFF"/><path d="m78.074219 443.992188c-5.523438 0-10.003907-4.476563-10.003907-10 0-5.523438 4.472657-10 9.992188-10h.011719c5.523437 0 10 4.476562 10 10 0 5.523437-4.476563 10-10 10zm0 0" data-original="#000000" class="active-path" data-old_color="#000000" fill="#FFFFFF"/><path d="m273.855469 262.269531c-2.558594 0-5.113281-.972656-7.066407-2.925781l-28.652343-28.632812c-3.90625-3.902344-3.910157-10.234376-.003907-14.140626 3.902344-3.90625 10.234376-3.910156 14.140626-.003906l21.585937 21.566406 84.617187-84.5625c3.90625-3.902343 10.238282-3.898437 14.144532.003907 3.902344 3.910156 3.902344 10.238281-.007813 14.144531l-91.6875 91.625c-1.953125 1.953125-4.511719 2.925781-7.070312 2.925781zm0 0" data-original="#000000" class="active-path" data-old_color="#000000" fill="#FFFFFF"/></g> </svg>
